
        <svg xmlns="http://www.w3.org/2000/svg" xmlns:xlink="http://www.w3.org/1999/xlink" version="1.1" width="3187.5" 
        height="1124.934574426155" viewBox="0 0 3187.5 1124.934574426155">
			<rect fill="#ffffff" width="3187.5" height="1124.934574426155"/>
			<g transform="scale(9.375) translate(10, 10)">
				<defs id="SvgjsDefs8470"></defs><g id="SvgjsG8471" featureKey="S6ay6y-0" transform="matrix(3.703302916062856,0,0,3.703302916062856,-7.4051428068104475,-7.40411948373236)" fill="#8785a2"><g xmlns="http://www.w3.org/2000/svg" transform="translate(0,-1020.3622)"><path style="color:;font-style:normal;font-variant:normal;font-weight:normal;font-stretch:normal;font-size:medium;line-height:normal;font-family:sans-serif;text-indent:0;text-align:start;text-decoration:none;text-decoration-line:none;text-decoration-style:solid;text-decoration-color:;letter-spacing:normal;word-spacing:normal;text-transform:none;direction:ltr;block-progression:tb;writing-mode:lr-tb;baseline-shift:baseline;text-anchor:start;white-space:normal;clip-rule:nonzero;display:inline;overflow:visible;visibility:visible;opacity:1;isolation:auto;mix-blend-mode:normal;color-interpolation:sRGB;color-interpolation-filters:linearRGB;solid-color:;solid-opacity:1;fill:#8785a2;fill-opacity:1;fill-rule:nonzero;stroke:none;stroke-width:0.99999988;stroke-linecap:round;stroke-linejoin:round;stroke-miterlimit:4.0999999;stroke-dasharray:none;stroke-dashoffset:0;stroke-opacity:1;color-rendering:auto;image-rendering:auto;shape-rendering:auto;text-rendering:auto;enable-background:accumulate" d="M 15.460938 2 A 0.50004994 0.50004994 0 0 0 15 2.5 L 15 9 L 9.0234375 9 L 9 9 A 0.50004994 0.50004994 0 0 0 8.9726562 9.0019531 A 0.50004994 0.50004994 0 0 0 8.9257812 9.0058594 A 0.50004994 0.50004994 0 0 0 8.8886719 9.0136719 A 0.50004994 0.50004994 0 0 0 8.8652344 9.0175781 A 0.50004994 0.50004994 0 0 0 8.8515625 9.0214844 A 0.50004994 0.50004994 0 0 0 8.8261719 9.03125 A 0.50004994 0.50004994 0 0 0 8.7871094 9.0488281 A 0.50004994 0.50004994 0 0 0 8.7734375 9.0546875 A 0.50004994 0.50004994 0 0 0 8.7402344 9.0722656 A 0.50004994 0.50004994 0 0 0 8.734375 9.0761719 A 0.50004994 0.50004994 0 0 0 8.6953125 9.1035156 A 0.50004994 0.50004994 0 0 0 8.6621094 9.1308594 A 0.50004994 0.50004994 0 0 0 8.6601562 9.1328125 L 8.65625 9.1367188 A 0.50004994 0.50004994 0 0 0 8.6386719 9.1523438 L 2.1601562 15.132812 A 0.50004994 0.50004994 0 0 0 2.5 16 L 9 16 L 9 22 A 0.50004994 0.50004994 0 0 0 9.0019531 22.027344 A 0.50004994 0.50004994 0 0 0 9.0058594 22.068359 A 0.50004994 0.50004994 0 0 0 9.0078125 22.087891 A 0.50004994 0.50004994 0 0 0 9.0097656 22.097656 A 0.50004994 0.50004994 0 0 0 9.0175781 22.126953 A 0.50004994 0.50004994 0 0 0 9.0292969 22.167969 A 0.50004994 0.50004994 0 0 0 9.0351562 22.185547 A 0.50004994 0.50004994 0 0 0 9.0410156 22.199219 A 0.50004994 0.50004994 0 0 0 9.0585938 22.232422 A 0.50004994 0.50004994 0 0 0 9.0683594 22.251953 A 0.50004994 0.50004994 0 0 0 9.0761719 22.263672 A 0.50004994 0.50004994 0 0 0 9.0878906 22.28125 A 0.50004994 0.50004994 0 0 0 9.1113281 22.314453 A 0.50004994 0.50004994 0 0 0 9.1230469 22.328125 A 0.50004994 0.50004994 0 0 0 9.1328125 22.339844 L 15.132812 28.839844 A 0.50004994 0.50004994 0 0 0 16 28.5 L 16 22 L 22 22 A 0.50004994 0.50004994 0 0 0 22.339844 21.869141 L 28.839844 15.869141 A 0.50004994 0.50004994 0 0 0 28.5 15 L 22 15 L 22 9.0214844 A 0.50004994 0.50004994 0 0 0 21.998047 8.9726562 A 0.50004994 0.50004994 0 0 0 21.994141 8.921875 A 0.50004994 0.50004994 0 0 0 21.992188 8.9160156 A 0.50004994 0.50004994 0 0 0 21.96875 8.8261719 A 0.50004994 0.50004994 0 0 0 21.960938 8.8046875 A 0.50004994 0.50004994 0 0 0 21.949219 8.7792969 A 0.50004994 0.50004994 0 0 0 21.947266 8.7753906 A 0.50004994 0.50004994 0 0 0 21.923828 8.7363281 A 0.50004994 0.50004994 0 0 0 21.912109 8.7167969 A 0.50004994 0.50004994 0 0 0 21.896484 8.6953125 A 0.50004994 0.50004994 0 0 0 21.882812 8.6777344 A 0.50004994 0.50004994 0 0 0 21.867188 8.6621094 L 21.847656 8.640625 A 0.50004994 0.50004994 0 0 0 21.845703 8.6386719 L 15.867188 2.1621094 A 0.50004994 0.50004994 0 0 0 15.511719 2 A 0.50004994 0.50004994 0 0 0 15.460938 2 z M 16 3.7792969 L 20.820312 9 L 16 14.222656 L 16 3.7792969 z M 10.279297 10 L 15 10 L 15 14.357422 L 10.279297 10 z M 9 10.181641 L 14.21875 15 L 9.5 15 L 3.78125 15 L 9 10.181641 z M 21 10.279297 L 21 15 L 16.642578 15 L 21 10.279297 z M 10 16 L 14.359375 16 L 10 20.722656 L 10 16 z M 16.779297 16 L 21.5 16 L 27.222656 16 L 22 20.820312 L 16.779297 16 z M 16 16.644531 L 20.71875 21 L 16 21 L 16 16.644531 z M 15 16.779297 L 15 21.5 L 15 27.222656 L 10.179688 22 L 15 16.779297 z " transform="translate(0,1020.3622)"></path></g></g><g id="SvgjsG8472" featureKey="j5pGhi-0" transform="matrix(3.0773854244928627,0,0,3.0773854244928627,115.88272739012021,-1.3127700037565742)" fill="#8785a2"><path d="M2.3926 10.332 q-0.87890625 1.46484375 -1.0546875 2.880859375 q0 10.16601563 0 10.14648438 l1.3672 0 l0 -5.9766 q0.869140625 1.064453125 1.943359375 1.586914063 t2.3535 0.52246 q2.265625 0 3.876953125 -1.650390625 t1.6113 -4.0039 q0 -2.314453125 -1.62109375 -3.955078125 t-3.9063 -1.6406 q-1.30859375 0 -2.456054688 0.5029296875 t-2.1143 1.5869 z M6.8457 9.561 q1.162109375 0 2.133789063 0.5712890625 t1.5479 1.5869 t0.57617 2.168 q0 1.1328125 -0.5810546875 2.172851563 t-1.5625 1.6113 t-2.0947 0.57129 q-1.1328125 0 -2.1484375 -0.5712890625 t-1.5625 -1.5527 t-0.54688 -2.1924 q0 -1.865234375 1.23046875 -3.115234375 t3.0078 -1.25 z M15.732403125 4.3260000000000005 q0.46875 0 0.8056640625 0.33203125 t0.33691 0.80078 t-0.33691 0.80566 t-0.80566 0.33691 t-0.80078 -0.33691 t-0.33203 -0.80566 t0.33203 -0.80078 t0.80078 -0.33203 z M15.048803125 8.73 l1.377 0 l0 10.713 l-1.377 0 l0 -10.713 z M25.507834375 10.332 q-0.87890625 1.46484375 -1.0546875 2.880859375 q0 10.16601563 0 10.14648438 l1.3672 0 l0 -5.9766 q0.869140625 1.064453125 1.943359375 1.586914063 t2.3535 0.52246 q2.265625 0 3.876953125 -1.650390625 t1.6113 -4.0039 q0 -2.314453125 -1.62109375 -3.955078125 t-3.9063 -1.6406 q-1.30859375 0 -2.456054688 0.5029296875 t-2.1143 1.5869 z M29.960934375 9.561 q1.162109375 0 2.133789063 0.5712890625 t1.5479 1.5869 t0.57617 2.168 q0 1.1328125 -0.5810546875 2.172851563 t-1.5625 1.6113 t-2.0947 0.57129 q-1.1328125 0 -2.1484375 -0.5712890625 t-1.5625 -1.5527 t-0.54688 -2.1924 q0 -1.865234375 1.23046875 -3.115234375 t3.0078 -1.25 z M38.8476375 4.3260000000000005 q0.46875 0 0.8056640625 0.33203125 t0.33691 0.80078 t-0.33691 0.80566 t-0.80566 0.33691 t-0.80078 -0.33691 t-0.33203 -0.80566 t0.33203 -0.80078 t0.80078 -0.33203 z M38.1640375 8.73 l1.377 0 l0 10.713 l-1.377 0 l0 -10.713 z M41.181645 8.73 l1.6504 0 l2.832 3.9746 l2.8418 -3.9746 l1.6504 0 l-3.6719 5.0879 l4.1309 5.625 l-1.6699 0 l-3.2813 -4.502 l-3.2324 4.502 l-1.6406 0 l4.0527 -5.625 z M61.084109375 15.6348 l1.1523 0.61523 q-0.556640625 1.123046875 -1.30859375 1.806640625 t-1.6895 1.04 t-2.1191 0.35645 q-2.6171875 0 -4.091796875 -1.713867188 t-1.4746 -3.8721 q0 -2.041015625 1.25 -3.6328125 q1.58203125 -2.03125 4.248046875 -2.03125 q2.724609375 0 4.365234375 2.080078125 q1.162109375 1.46484375 1.171875 3.65234375 l-9.6191 0 q0.0390625 1.875 1.19140625 3.071289063 t2.8418 1.1963 q0.8203125 0 1.591796875 -0.2880859375 t1.3135 -0.75684 t1.1768 -1.5234 z M61.084109375 12.7539 q-0.2734375 -1.103515625 -0.80078125 -1.762695313 t-1.3965 -1.0645 t-1.8262 -0.40527 q-1.572265625 0 -2.705078125 1.015625 q-0.8203125 0.7421875 -1.240234375 2.216796875 l7.9688 0 z M64.941446875 4.59 l1.3867 0 l0 14.854 l-1.3867 0 l0 -14.854 z"></path></g><g id="SvgjsG8473" featureKey="sloganFeature-0" transform="matrix(0.5130672199007702,0,0,0.5130672199007702,143.1175243670917,78.30126703983872)" fill="#8785a2"><path d="M3.66 7.300000000000001 l0 4.98 l3.86 0 c1.74 0 2.92 -0.64 2.92 -2.58 c0 -1.82 -1.24 -2.4 -2.84 -2.4 l-3.94 0 z M3.66 13.940000000000001 l0 6.06 l-1.94 0 l0 -14.36 l6.46 0 c2.66 0 4.26 1.72 4.26 4.04 c0 2 -1.14 4.26 -4.26 4.26 l-4.52 0 z M40.147 11.58 l0 -5.94 l1.94 0 l0 14.36 l-1.94 0 l0 -6.7 l-7.5 0 l0 6.7 l-1.94 0 l0 -14.36 l1.94 0 l0 5.94 l7.5 0 z M72.214 12.82 c0 -3.38 -1.88 -5.84 -5 -5.84 s-5 2.46 -5 5.84 s1.88 5.84 5 5.84 s5 -2.46 5 -5.84 z M74.214 12.82 c0 3.1 -1.64 7.56 -7 7.56 s-7 -4.46 -7 -7.56 s1.64 -7.56 7 -7.56 s7 4.46 7 7.56 z M91.101 7.359999999999999 l0 -1.72 l11.66 0 l0 1.72 l-4.86 0 l0 12.64 l-1.94 0 l0 -12.64 l-4.86 0 z M131.648 12.82 c0 -3.38 -1.88 -5.84 -5 -5.84 s-5 2.46 -5 5.84 s1.88 5.84 5 5.84 s5 -2.46 5 -5.84 z M133.648 12.82 c0 3.1 -1.64 7.56 -7 7.56 s-7 -4.46 -7 -7.56 s1.64 -7.56 7 -7.56 s7 4.46 7 7.56 z M158.035 13.98 l0 -1.66 l6.3 0 l0 7.68 l-1.26 0 l-0.46 -1.86 c-0.98 1.36 -2.78 2.24 -4.74 2.24 c-2.46 0 -3.66 -0.9 -4.4 -1.62 c-2.2 -2.08 -2.26 -4.54 -2.26 -6.06 c0 -3.5 2.12 -7.44 6.8 -7.44 c2.68 0 5.66 1.52 6.08 4.74 l-1.88 0 c-0.62 -2.5 -2.72 -3.02 -4.3 -3.02 c-2.58 0 -4.7 2.06 -4.7 5.82 c0 2.92 0.96 5.92 4.78 5.92 c0.72 0 1.88 -0.08 2.94 -0.92 c1.26 -1 1.58 -2.28 1.58 -3.82 l-4.48 0 z M185.34199999999998 13.84 l0 6.16 l-1.94 0 l0 -14.36 l6.64 0 c2.36 0 4.72 0.82 4.72 3.86 c0 2.12 -1.08 2.9 -2 3.44 c0.82 0.34 1.64 0.7 1.72 2.7 l0.12 2.6 c0.02 0.8 0.12 1.1 0.72 1.44 l0 0.32 l-2.38 0 c-0.28 -0.88 -0.34 -3.06 -0.34 -3.6 c0 -1.18 -0.24 -2.56 -2.56 -2.56 l-4.7 0 z M185.34199999999998 7.300000000000001 l0 4.88 l4.5 0 c1.42 0 2.92 -0.36 2.92 -2.48 c0 -2.22 -1.62 -2.4 -2.58 -2.4 l-4.84 0 z M221.44899999999998 15.82 l-5.76 0 l-1.5 4.18 l-2 0 l5.4 -14.36 l2.2 0 l5.2 14.36 l-2.12 0 z M216.289 14.1 l4.46 0 l-2.12 -6.32 l-0.04 0 z M244.736 7.300000000000001 l0 4.98 l3.86 0 c1.74 0 2.92 -0.64 2.92 -2.58 c0 -1.82 -1.24 -2.4 -2.84 -2.4 l-3.94 0 z M244.736 13.940000000000001 l0 6.06 l-1.94 0 l0 -14.36 l6.46 0 c2.66 0 4.26 1.72 4.26 4.04 c0 2 -1.14 4.26 -4.26 4.26 l-4.52 0 z M281.223 11.58 l0 -5.94 l1.94 0 l0 14.36 l-1.94 0 l0 -6.7 l-7.5 0 l0 6.7 l-1.94 0 l0 -14.36 l1.94 0 l0 5.94 l7.5 0 z M308.15 14.219999999999999 l0 5.78 l-1.94 0 l0 -5.78 l-5.42 -8.58 l2.26 0 l4.12 6.9 l4.12 -6.9 l2.28 0 z"></path></g>
			</g>
		</svg>
	